<svg xmlns="http://www.w3.org/2000/svg" xmlns:xlink="http://www.w3.org/1999/xlink"><defs>
<clipPath id="clip0">
<rect width="22" height="22" fill="white" transform="translate(7)"/>
</clipPath>
</defs><symbol id="cart" viewBox="0 0 24 24">
    <path d="M1.75674 2.16305H19.6364C19.6902 2.16305 19.7394 2.18312 19.7898 2.19818L20.2293 0.766473C20.3691 0.311172 20.7927 0 21.2727 0H23.4545C23.7558 0 24 0.242124 24 0.540774V1.62227C24 1.92092 23.7558 2.16305 23.4545 2.16305H22.0807L18.6727 13.266L19.9455 14.7381C20.4486 15.32 20.6752 16.1217 20.4436 16.8528C20.1475 17.7879 19.315 18.3857 18.3553 18.3857H2.72726C2.42601 18.3857 2.18179 18.1436 2.18179 17.8449V16.7634C2.18179 16.4648 2.42601 16.2227 2.72726 16.2227H18.3553L16.6262 14.2228C16.5828 14.1725 16.5508 14.1157 16.5178 14.0596H5.94778C5.10234 14.0596 4.33299 13.5756 3.97299 12.8172L0.166704 4.79863C0.0575275 4.56786 0 4.31175 0 4.05771V3.90456C0 2.9428 0.786528 2.16305 1.75674 2.16305Z" fill="#F9FBFF"/>
    <path d="M17.5717 23.4C16.3883 23.4 15.4289 22.4646 15.4289 21.3107C15.4289 20.1568 16.3883 19.2214 17.5717 19.2214C18.7552 19.2214 19.7146 20.1568 19.7146 21.3107C19.7146 22.4646 18.7552 23.4 17.5717 23.4Z" fill="white"/>
    <path d="M4.71432 23.4C3.53085 23.4 2.57146 22.4646 2.57146 21.3107C2.57146 20.1568 3.53085 19.2214 4.71432 19.2214C5.89779 19.2214 6.85718 20.1568 6.85718 21.3107C6.85718 22.4646 5.89779 23.4 4.71432 23.4Z" fill="white"/>
</symbol><symbol id="enter-logged" viewBox="0 0 29 27">
<path d="M23 3H5.00003C4.44775 3 4 3.4477 4 3.99998V11C4 11.5522 4.4477 12 4.99998 12C5.55227 12 5.99997 11.5522 5.99997 11V4.99997H22V25H6.00002V19C6.00002 18.4477 5.55231 18 5.00003 18C4.44775 18 4.00005 18.4477 4.00005 19V26C4.00005 26.5522 4.44775 27 5.00003 27H23C23.5523 27 24 26.5522 24 26V3.99998C24 3.4477 23.5523 3 23 3Z" fill="white"/>
<g clip-path="url(#clip0)">
<path d="M28.6778 3.24395C28.2483 2.81435 27.5518 2.81435 27.1222 3.24395L13.9435 16.4228L8.87784 11.3571C8.44828 10.9275 7.75185 10.9275 7.3222 11.3571C6.8926 11.7867 6.8926 12.4831 7.3222 12.9127L13.1657 18.7561C13.5951 19.1857 14.2921 19.1854 14.7213 18.7561L28.6778 4.79959C29.1074 4.37004 29.1074 3.67356 28.6778 3.24395Z" fill="#96B433"/>
</g>

</symbol><symbol id="enter" viewBox="0 0 24 24">
<path d="M23 0H5.00003C4.44775 0 4 0.447703 4 0.999984V7.99997C4 8.55225 4.4477 8.99995 4.99998 8.99995C5.55227 8.99995 5.99997 8.55225 5.99997 7.99997V1.99997H22V22H6.00002V16C6.00002 15.4477 5.55231 15 5.00003 15C4.44775 15 4.00005 15.4477 4.00005 16V23C4.00005 23.5522 4.44775 24 5.00003 24H23C23.5523 24 24 23.5522 24 23V0.999984C24 0.447703 23.5523 0 23 0Z" fill="white"/>
<path d="M9.29288 15.2931C8.90236 15.6836 8.90236 16.3168 9.29288 16.7073C9.68339 17.0978 10.3166 17.0978 10.7071 16.7073L14.7071 12.7073C14.7073 12.7071 14.7074 12.7069 14.7075 12.7068C14.7307 12.6836 14.7525 12.6593 14.7733 12.634C14.7828 12.6225 14.7911 12.6103 14.8 12.5984C14.8106 12.5842 14.8216 12.5702 14.8315 12.5554C14.841 12.5412 14.8493 12.5264 14.858 12.5118C14.866 12.4984 14.8744 12.4853 14.8818 12.4715C14.8898 12.4566 14.8965 12.4413 14.9037 12.4261C14.9105 12.4117 14.9177 12.3975 14.9238 12.3828C14.9299 12.3681 14.9349 12.353 14.9402 12.338C14.9459 12.3222 14.952 12.3066 14.9568 12.2905C14.9614 12.2755 14.9647 12.2602 14.9685 12.2451C14.9727 12.2286 14.9773 12.2123 14.9806 12.1956C14.9841 12.178 14.9862 12.1603 14.9887 12.1426C14.9908 12.1281 14.9936 12.1137 14.995 12.0989C15.0015 12.0333 15.0015 11.9671 14.995 11.9015C14.9936 11.8867 14.9908 11.8724 14.9887 11.8578C14.9862 11.8401 14.9841 11.8223 14.9806 11.8048C14.9773 11.788 14.9727 11.7718 14.9685 11.7554C14.9647 11.7402 14.9614 11.7249 14.9568 11.7099C14.952 11.6938 14.9459 11.6782 14.9402 11.6625C14.9348 11.6475 14.9299 11.6324 14.9238 11.6176C14.9177 11.6028 14.9105 11.5887 14.9037 11.5743C14.8965 11.5591 14.8898 11.5438 14.8818 11.5289C14.8744 11.5151 14.866 11.502 14.858 11.4886C14.8493 11.474 14.841 11.4592 14.8315 11.445C14.8216 11.4302 14.8106 11.4163 14.8 11.4021C14.7911 11.3902 14.7828 11.378 14.7733 11.3664C14.7525 11.3411 14.7307 11.3167 14.7075 11.2936C14.7074 11.2934 14.7073 11.2933 14.7071 11.2931L10.7071 7.29313C10.3166 6.90262 9.68339 6.90262 9.29288 7.29313C8.90236 7.68365 8.90236 8.31684 9.29288 8.70735L11.5858 11.0002H0.999984C0.447703 11.0002 0 11.4479 0 12.0001C0 12.5524 0.447703 13.0001 0.999984 13.0001H11.5858L9.29288 15.2931Z" fill="white"/>
</symbol></svg>