<svg width="24" height="24" viewBox="0 0 24 24" fill="none" xmlns="http://www.w3.org/2000/svg">
    <path d="M1.75674 2.16305H19.6364C19.6902 2.16305 19.7394 2.18312 19.7898 2.19818L20.2293 0.766473C20.3691 0.311172 20.7927 0 21.2727 0H23.4545C23.7558 0 24 0.242124 24 0.540774V1.62227C24 1.92092 23.7558 2.16305 23.4545 2.16305H22.0807L18.6727 13.266L19.9455 14.7381C20.4486 15.32 20.6752 16.1217 20.4436 16.8528C20.1475 17.7879 19.315 18.3857 18.3553 18.3857H2.72726C2.42601 18.3857 2.18179 18.1436 2.18179 17.8449V16.7634C2.18179 16.4648 2.42601 16.2227 2.72726 16.2227H18.3553L16.6262 14.2228C16.5828 14.1725 16.5508 14.1157 16.5178 14.0596H5.94778C5.10234 14.0596 4.33299 13.5756 3.97299 12.8172L0.166704 4.79863C0.0575275 4.56786 0 4.31175 0 4.05771V3.90456C0 2.9428 0.786528 2.16305 1.75674 2.16305Z" fill="#F9FBFF"/>
    <path d="M17.5717 23.4C16.3883 23.4 15.4289 22.4646 15.4289 21.3107C15.4289 20.1568 16.3883 19.2214 17.5717 19.2214C18.7552 19.2214 19.7146 20.1568 19.7146 21.3107C19.7146 22.4646 18.7552 23.4 17.5717 23.4Z" fill="white"/>
    <path d="M4.71432 23.4C3.53085 23.4 2.57146 22.4646 2.57146 21.3107C2.57146 20.1568 3.53085 19.2214 4.71432 19.2214C5.89779 19.2214 6.85718 20.1568 6.85718 21.3107C6.85718 22.4646 5.89779 23.4 4.71432 23.4Z" fill="white"/>
</svg>
