<svg width="29" height="27" viewBox="0 0 29 27" fill="none" xmlns="http://www.w3.org/2000/svg">
<path d="M23 3H5.00003C4.44775 3 4 3.4477 4 3.99998V11C4 11.5522 4.4477 12 4.99998 12C5.55227 12 5.99997 11.5522 5.99997 11V4.99997H22V25H6.00002V19C6.00002 18.4477 5.55231 18 5.00003 18C4.44775 18 4.00005 18.4477 4.00005 19V26C4.00005 26.5522 4.44775 27 5.00003 27H23C23.5523 27 24 26.5522 24 26V3.99998C24 3.4477 23.5523 3 23 3Z" fill="white"/>
<g clip-path="url(#clip0)">
<path d="M28.6778 3.24395C28.2483 2.81435 27.5518 2.81435 27.1222 3.24395L13.9435 16.4228L8.87784 11.3571C8.44828 10.9275 7.75185 10.9275 7.3222 11.3571C6.8926 11.7867 6.8926 12.4831 7.3222 12.9127L13.1657 18.7561C13.5951 19.1857 14.2921 19.1854 14.7213 18.7561L28.6778 4.79959C29.1074 4.37004 29.1074 3.67356 28.6778 3.24395Z" fill="#96B433"/>
</g>
<defs>
<clipPath id="clip0">
<rect width="22" height="22" fill="white" transform="translate(7)"/>
</clipPath>
</defs>
</svg>
