<svg width="24" height="24" viewBox="0 0 24 24" fill="none" xmlns="http://www.w3.org/2000/svg">
<path d="M23 0H5.00003C4.44775 0 4 0.447703 4 0.999984V7.99997C4 8.55225 4.4477 8.99995 4.99998 8.99995C5.55227 8.99995 5.99997 8.55225 5.99997 7.99997V1.99997H22V22H6.00002V16C6.00002 15.4477 5.55231 15 5.00003 15C4.44775 15 4.00005 15.4477 4.00005 16V23C4.00005 23.5522 4.44775 24 5.00003 24H23C23.5523 24 24 23.5522 24 23V0.999984C24 0.447703 23.5523 0 23 0Z" fill="white"/>
<path d="M9.29288 15.2931C8.90236 15.6836 8.90236 16.3168 9.29288 16.7073C9.68339 17.0978 10.3166 17.0978 10.7071 16.7073L14.7071 12.7073C14.7073 12.7071 14.7074 12.7069 14.7075 12.7068C14.7307 12.6836 14.7525 12.6593 14.7733 12.634C14.7828 12.6225 14.7911 12.6103 14.8 12.5984C14.8106 12.5842 14.8216 12.5702 14.8315 12.5554C14.841 12.5412 14.8493 12.5264 14.858 12.5118C14.866 12.4984 14.8744 12.4853 14.8818 12.4715C14.8898 12.4566 14.8965 12.4413 14.9037 12.4261C14.9105 12.4117 14.9177 12.3975 14.9238 12.3828C14.9299 12.3681 14.9349 12.353 14.9402 12.338C14.9459 12.3222 14.952 12.3066 14.9568 12.2905C14.9614 12.2755 14.9647 12.2602 14.9685 12.2451C14.9727 12.2286 14.9773 12.2123 14.9806 12.1956C14.9841 12.178 14.9862 12.1603 14.9887 12.1426C14.9908 12.1281 14.9936 12.1137 14.995 12.0989C15.0015 12.0333 15.0015 11.9671 14.995 11.9015C14.9936 11.8867 14.9908 11.8724 14.9887 11.8578C14.9862 11.8401 14.9841 11.8223 14.9806 11.8048C14.9773 11.788 14.9727 11.7718 14.9685 11.7554C14.9647 11.7402 14.9614 11.7249 14.9568 11.7099C14.952 11.6938 14.9459 11.6782 14.9402 11.6625C14.9348 11.6475 14.9299 11.6324 14.9238 11.6176C14.9177 11.6028 14.9105 11.5887 14.9037 11.5743C14.8965 11.5591 14.8898 11.5438 14.8818 11.5289C14.8744 11.5151 14.866 11.502 14.858 11.4886C14.8493 11.474 14.841 11.4592 14.8315 11.445C14.8216 11.4302 14.8106 11.4163 14.8 11.4021C14.7911 11.3902 14.7828 11.378 14.7733 11.3664C14.7525 11.3411 14.7307 11.3167 14.7075 11.2936C14.7074 11.2934 14.7073 11.2933 14.7071 11.2931L10.7071 7.29313C10.3166 6.90262 9.68339 6.90262 9.29288 7.29313C8.90236 7.68365 8.90236 8.31684 9.29288 8.70735L11.5858 11.0002H0.999984C0.447703 11.0002 0 11.4479 0 12.0001C0 12.5524 0.447703 13.0001 0.999984 13.0001H11.5858L9.29288 15.2931Z" fill="white"/>
</svg>
