<svg width="595" height="328" viewBox="0 0 595 328" fill="none" xmlns="http://www.w3.org/2000/svg">
<g clip-path="url(#clip0)">
<path d="M303.27 319.82C304.018 319.513 304.697 319.06 305.269 318.489C305.84 317.917 306.293 317.238 306.6 316.49C306.66 315.37 306.55 314.26 306.66 313.14C306.132 312.164 305.401 311.313 304.516 310.643C303.631 309.974 302.613 309.502 301.53 309.26C300.815 309.48 300.063 309.551 299.32 309.47C299.531 309.532 299.755 309.534 299.967 309.476C300.179 309.418 300.371 309.301 300.52 309.14C297.121 308.287 293.649 307.761 290.15 307.57C289.198 307.847 288.195 307.898 287.22 307.72C287.376 307.773 287.545 307.772 287.7 307.715C287.854 307.659 287.985 307.551 288.07 307.41C285.419 306.585 282.68 306.075 279.91 305.89C277.26 306.14 274.61 305.65 271.91 305.77C270.1 305.94 269.22 307.13 268.64 308.67C268.765 310.152 268.735 311.644 268.55 313.12C268.807 314.978 269.651 316.706 270.96 318.05C273.919 321.49 277.092 324.74 280.46 327.78H282.17C286.81 325.35 292.11 324.78 296.9 322.78C298.11 322.28 299.45 322.07 300.47 321.17C301.04 320.06 301.53 318.8 303.27 319.82Z" fill="#461905"/>
<path d="M262.33 123.73C256.18 123.64 248.98 125.97 242.03 130.49C236.84 133.87 231.49 137.11 226.21 140.4C225.096 141.11 224.04 141.906 223.05 142.78C220.34 145.16 220.54 146.46 223.38 148.71C226.395 151.228 229.119 154.076 231.5 157.2C234.39 160.79 237.31 164.37 240.41 167.78C251.19 179.6 264.52 179.68 277.35 172C282.27 169.06 286.74 165.42 291.72 162.54C299.27 158.16 307.17 155.46 316.06 156.87C316.615 156.994 317.195 156.929 317.71 156.687C318.224 156.444 318.643 156.037 318.9 155.53C319.48 154.53 319.06 153.76 318.23 153.08C308.07 144.58 298.33 135.55 286.33 129.44C278.959 125.492 270.689 123.524 262.33 123.73Z" fill="#461905"/>
<path d="M301.51 79.89C296.731 80.1247 291.974 80.6826 287.27 81.56L284.57 82.5L282.32 83.41C282.32 83.41 279.32 84.79 279.32 84.85C275.332 87.0643 271.497 89.5431 267.84 92.27C264.08 94.99 260.45 97.83 256.84 100.77C255.348 101.876 254.287 103.467 253.84 105.27C253.98 106.01 253.62 106.73 253.79 107.46C264.484 115.032 276.005 121.363 288.13 126.33C290.012 127.207 292.054 127.687 294.13 127.74C295.806 127.335 297.554 127.335 299.23 127.74C303.216 127.846 307.175 127.05 310.81 125.41C322.36 120.75 333.95 116.17 345.7 111.99C352.52 109.56 352.61 108.53 347.4 103.59C338.4 95.1 328.76 87.68 317.23 82.88C313.76 81.6687 310.212 80.6931 306.61 79.96C306.76 79.99 301.51 79.89 301.51 79.89Z" fill="#461905"/>
<path d="M344.74 277.59C357.88 277.41 369.81 274.18 379.03 264.16C382.03 260.9 385.1 257.71 388.03 254.43C390.47 251.73 390.03 250.29 386.91 248.64C379.55 244.79 372.38 240.64 364.66 237.44C360.093 235.439 355.291 234.022 350.37 233.22C349.128 233.47 347.852 233.5 346.6 233.31C346.23 233.15 346.69 232.75 346.6 233.11C346.6 233.26 346.6 233.34 346.74 233.35C347.28 233.35 347.85 233.56 348.29 233.05C342.303 231.921 336.112 232.77 330.65 235.47C324.311 238.483 318.435 242.385 313.2 247.06C308.889 250.877 304.028 254.022 298.78 256.39C297.48 257.01 295.57 257.39 295.49 259.12C295.41 260.85 297.44 261.12 298.7 261.83C308.06 266.93 317.53 271.83 327.8 274.97C331.834 276.339 336.023 277.199 340.27 277.53C341.746 277.214 343.273 277.235 344.74 277.59Z" fill="#461905"/>
<path d="M363.55 111.49C358.48 111.32 353.92 113.15 349.34 114.95C338.72 119.15 328 123.1 317.99 128.69C314.041 130.73 309.832 132.22 305.48 133.12C304.18 133.44 302.61 133.8 302.31 135.29C302.01 136.78 303.46 137.29 304.44 138C311.66 143 318.78 148.07 326.11 152.89C338.51 161.05 351.25 161.56 364.66 155.67C371.294 152.872 377.312 148.794 382.37 143.67C386.91 138.93 388.06 137.82 384.37 131.05C381.12 124.996 377.085 119.398 372.37 114.4C371.27 113.25 370.24 111.99 368.58 111.56C366.913 111.841 365.209 111.817 363.55 111.49Z" fill="#461905"/>
<path d="M336.2 228.58C337.66 227.31 336.61 226.47 335.63 225.71C329.414 221.012 322.558 217.227 315.27 214.47C313.16 216.63 310.4 216.55 307.68 216.6C306.28 216.6 304.88 216.6 303.47 216.53C298.658 216.12 293.828 215.97 289 216.08C288.815 216.044 288.625 216.044 288.44 216.08C283.7 218.68 280.12 215.08 276.15 213.77C273.48 212.87 270.94 212.37 268.34 213.91C265.74 215.45 265.19 215.15 264.34 212.48C264.231 211.933 263.983 211.424 263.621 211C263.258 210.576 262.793 210.253 262.27 210.06C254.18 214.75 246.27 219.72 237.9 223.95C235.47 225.18 235.32 227.02 237.41 228.27C244.5 232.52 250.07 238.68 256.9 243.27C265.35 248.91 274.32 253.47 284.58 254.87C290.01 255.62 295.18 254.39 299 250.48C308.85 240.37 320.9 234.05 334.08 229.48C334.246 229.389 334.401 229.278 334.54 229.15C334.765 228.95 335.028 228.796 335.313 228.698C335.598 228.6 335.899 228.56 336.2 228.58Z" fill="#461905"/>
<path d="M254.47 250.5C254.193 250.305 253.878 250.17 253.545 250.104C253.213 250.039 252.87 250.044 252.54 250.12C251.22 250.55 249.86 250.23 248.54 250.32C248.16 250.32 247.91 250.37 248.29 250.41C248.29 250.07 248.73 250.24 248.74 249.96C239.84 249.81 231.04 250.46 223.01 254.69C218.447 257.009 214.21 259.921 210.41 263.35C210.24 264.59 209.26 265.6 209.41 266.92C213.277 270.884 217.671 274.296 222.47 277.06C227.402 280.036 232.486 282.753 237.7 285.2C246.85 289.26 256.39 292.2 266.51 289.28C272.259 287.7 277.694 285.146 282.58 281.73C286.22 279.1 290.76 278.41 294.81 276.64C296.27 276 297.81 275.42 299.23 274.81C299.553 273.841 299.591 272.8 299.34 271.81C289.88 264.05 279.8 257.24 268.08 253.36C264.162 251.995 260.098 251.092 255.97 250.67C255.47 251.04 254.89 250.87 254.34 250.9C254.16 250.9 253.95 250.98 253.82 250.77C254.13 250.89 254.32 250.75 254.47 250.5Z" fill="#461905"/>
<path d="M281.59 175.73C280.3 175.73 279.59 176.73 278.72 177.34C278.13 179.743 276.687 181.851 274.66 183.27C271.8 185.37 271.66 186.9 273.66 189.78C274.78 189.999 275.817 190.521 276.66 191.29C277.276 191.53 277.863 191.839 278.41 192.21C285 196.89 291.34 196.58 297.73 190.92C297.18 192.92 297.33 194.43 298.57 195.7C299.28 196.43 299.01 197.2 298.57 198C296.65 201.29 296.67 201.3 299.25 204C302.25 205 305.15 206.12 308.34 206.22C309.722 206.076 311.118 206.254 312.42 206.74C314.094 207.13 315.814 207.281 317.53 207.19C318.72 206.65 320 207.09 321.22 206.93C322.226 206.584 323.304 206.505 324.35 206.7C326.35 206.92 327.79 205.61 329.46 204.94C331.65 202.3 333.46 199.58 333.05 195.86C332.82 194.07 333.46 193.08 335.5 194.22C337.21 195.22 339.3 195.34 340.88 196.62L347.12 192.03C348.98 188.38 348.92 184.94 346.4 181.51C345.63 180.45 345 180.21 344.18 180.94C342.32 182.725 339.848 183.734 337.27 183.76C335.7 183.76 336.06 184.92 336.84 185.68C337.96 186.77 339.5 187.06 340.92 187.57C342.92 188.29 344.34 189.43 343.92 191.93C339.59 189.33 336.92 185.12 333.17 182.16C332.57 181.69 332.17 181.16 331.24 181.3C330.31 181.44 329.67 181.19 329.61 180.21C329.584 179.974 329.604 179.734 329.67 179.506C329.736 179.277 329.847 179.064 329.995 178.878C330.144 178.693 330.328 178.538 330.536 178.423C330.745 178.309 330.974 178.236 331.21 178.21C332.593 177.866 334.028 177.788 335.44 177.98C338.44 178.51 340.83 177.21 343.07 175.73C344.57 174.73 344.86 174.99 345.2 176.56C345.94 179.88 348.2 180.98 351.27 179.65C351.53 179.53 351.93 179.49 352.01 179.26C352.9 176.7 355.71 174.89 355.01 171.73C347.06 166.07 338.49 161.8 328.79 160C328.101 160.213 327.375 160.274 326.66 160.18C326.43 160.18 326.09 160.32 326.03 159.92C326.45 160.38 326.84 160.19 327.23 159.84C324.231 158.835 321.02 158.639 317.92 159.27C317.23 159.96 316.49 159.61 315.75 159.41C314.921 159.259 314.065 159.411 313.34 159.84C313.456 159.986 313.615 160.091 313.795 160.14C313.975 160.189 314.166 160.178 314.34 160.11C314.13 160.27 313.89 160.19 313.66 160.18C313.21 160.18 312.72 160.28 312.34 159.91C305.11 160.53 298.72 163.35 292.78 167.3C291.23 168.3 289.78 169.44 288.23 170.51C288.23 172.51 289.5 173.51 291.46 174.27C290.04 175.04 288.68 175.34 287.91 176.66C286.69 178.66 285.53 178.79 283.62 177.25C283.011 176.658 282.329 176.147 281.59 175.73Z" fill="#461905"/>
<path d="M300.89 57.93C300.858 58.2999 300.91 58.6724 301.044 59.019C301.177 59.3656 301.388 59.6772 301.66 59.93C306.3 65.81 310.87 71.75 316.51 76.77C321.51 81.2 327.69 82.27 333.98 83.12C335.66 82.7798 337.393 82.8105 339.06 83.21C343.89 83.31 348.3 81.55 352.74 80.06C357.92 78.32 362.69 75.6 367.9 73.88C370.99 72.88 371.52 71.67 370.33 68.74C365.5 56.93 358.27 47.48 344.98 44.06C344.521 43.9765 344.056 43.9231 343.59 43.9C342.815 44.1625 341.985 44.221 341.18 44.07C341.342 44.1274 341.519 44.1258 341.68 44.0654C341.841 44.005 341.976 43.8898 342.06 43.74C339.437 42.8972 336.644 42.7321 333.94 43.26C332.856 43.6922 331.651 43.7171 330.55 43.33C326.26 43.65 321.97 44.08 317.95 45.63C313.351 47.3213 308.927 49.4546 304.74 52C303.13 53 301.24 54 300.92 56.22C301.4 56.8 300.8 57.36 300.89 57.93Z" fill="#461905"/>
<path d="M215.38 176.17C212.11 176.73 208.94 177.54 206.3 179.73C205.47 180.42 204.64 181.15 204.94 182.31C206.94 189.68 207.03 197.5 210.83 204.45C215.44 212.88 224.11 218.51 232.31 217.29C239.111 216.186 245.714 214.093 251.91 211.08C259.23 207.65 266.56 204.25 273.62 200.32C273.882 199.904 274.021 199.422 274.021 198.93C274.021 198.438 273.882 197.956 273.62 197.54C262.51 190.78 252.44 182.32 240.41 177.05C233.08 173.83 225.41 173.59 217.66 175.56C217.09 176.35 216.08 175.67 215.38 176.17Z" fill="#461905"/>
<path d="M285.03 81L285.38 80.83C285.38 80.83 286.31 80.23 286.84 79.95C291.405 77.5069 296.251 75.6297 301.27 74.36C304.54 73.51 305.27 71.92 303.07 69.56C295.92 61.94 287.89 55.56 277.16 53.66C275.223 53.2248 273.207 53.2867 271.3 53.84C270.41 54.57 269.45 54.31 268.49 54.03C259.18 54.78 251.08 58.58 243.74 64.03C238.69 67.78 234.03 72.03 231.05 77.68C231.19 78.98 230.85 80.27 230.97 81.57C231.1 81.91 231.13 82.37 231.37 82.57C236.27 86.94 240.5 92.04 245.99 95.74C249.23 97.93 252.69 97.82 256.26 96.41C261.08 94.52 264.98 91.26 269.11 88.32C272.18 86.14 279.24 83.7 279.24 83.7" fill="#461905"/>
<path d="M360.14 189.85C357.67 191.39 354.79 192.22 352.59 194.21C353.07 195.42 351.9 195.77 351.36 196.4C350.65 197.22 350 197.94 350.94 199.13C349.645 198.731 348.295 198.542 346.94 198.57C340.76 202.94 334.94 207.8 328.35 211.63C326.45 212.73 326.47 214.56 328.45 215.41C338.89 219.87 348.11 226.65 358.68 230.89C364.636 233.411 371.168 234.258 377.57 233.34C383.72 232.4 387.25 228.69 389.2 223.14C389.97 221.65 389.32 219.85 390.53 218.36C391.24 217.48 390.38 216.66 389.23 216.48C387.32 216.17 386.68 214.92 386.45 213.12C385.69 207.38 387.56 201.76 387.13 196.04C386.94 193.54 389.57 193.33 390.84 192.04C385.39 186.85 379.25 183.76 371.43 185.78C371.98 186.27 372.66 186.05 373.43 186.1C372.61 186.1 371.94 186.28 371.43 185.77C369.52 185.34 367.93 186.42 366.2 186.88C367.76 187.88 369.2 188.76 367.73 191.01C367.04 192.09 367.98 193.52 368.08 194.78C367.2 193.11 366.79 190.98 364.41 190.62C363.25 190.44 362.84 191.4 362.41 192.28C361.7 191.36 361.36 190.18 360.14 189.85Z" fill="#461905"/>
<path d="M312.91 277.17C304.52 277.39 296.78 280.25 289.24 283.45C283.6 285.85 277.84 287.97 272.24 290.45C271.45 290.761 270.684 291.132 269.95 291.56C267.52 293.08 267.41 294.63 269.68 296.39C273.211 299.088 277.188 301.146 281.43 302.47C288.87 304.9 296.57 305.72 304.32 306.22C304.32 305.31 303.6 305.6 303.14 305.43C306.01 306.43 309.02 305.91 311.97 306.13C312.34 306.26 311.86 306.78 311.97 306.44C312.04 306.29 311.97 306.22 311.84 306.19C310.94 306.05 310.04 305.79 309.22 306.43C310.966 306.877 312.777 307.013 314.57 306.83C315.665 306.45 316.855 306.45 317.95 306.83C322.72 306.72 327.27 305.42 331.78 304.11C340.29 301.65 348.94 299.5 356.54 294.67C357.48 294.08 358.87 293.73 358.63 292.37C358.542 291.725 358.294 291.112 357.908 290.588C357.521 290.064 357.01 289.645 356.42 289.37C348.79 285.7 341.42 281.57 333.21 279.09C327.562 277.323 321.632 276.635 315.73 277.06C315.297 277.284 314.82 277.41 314.332 277.429C313.845 277.449 313.359 277.36 312.91 277.17Z" fill="#461905"/>
<path d="M212.09 117.52C210.96 122.71 210.56 127.93 212.29 133.06C214.1 138.43 217.88 139.98 222.96 137.33C225.843 135.72 228.634 133.95 231.32 132.03C239.707 126.533 248.98 122.524 258.73 120.18C259.926 119.899 261.152 119.771 262.38 119.8C263.47 119.8 264.32 119.6 264.57 118.5C264.82 117.4 263.94 117.07 263.21 116.6C257.174 112.889 251.449 108.695 246.09 104.06C241.73 100.13 238.21 95.4401 234.09 91.3001C228.25 85.4601 221.18 82.5401 212.81 83.2101C210.12 83.4301 209.7 84.2101 210.81 86.7101C212.066 89.4386 212.717 92.4063 212.72 95.4101C212.899 101.508 212.732 107.611 212.22 113.69C212.46 115 212.79 116.28 212.09 117.52Z" fill="#461905"/>
<path d="M290.12 16.21C284.23 16.33 279.12 18.67 274.3 21.75C269.882 24.3724 265.781 27.4964 262.08 31.06C259.88 33.31 259.81 35.06 262.32 36.92C266.79 40.22 271.32 43.52 276.04 46.41C281.86 49.94 288.34 49.89 294.79 48.54C300.534 47.362 306.195 45.8155 311.74 43.91C317.03 42.07 322.56 41.24 327.98 39.97C331.39 39.18 332.07 37.74 329.93 35.15C322.41 26.02 313.72 18.58 301.46 16.54C300.34 16.35 299.2 16.34 298.08 16.25C295.436 16.5767 292.761 16.5632 290.12 16.21Z" fill="#461905"/>
<path d="M212.04 255.24C213.281 255.198 214.503 254.92 215.64 254.42C224.48 251.05 233.78 249.19 242.73 246.19C246.2 245.02 246.5 244.25 244.61 241.01C242.42 237.26 238.94 234.8 235.61 232.24C224.358 223.332 210.818 217.786 196.55 216.24C195.06 215.982 193.558 215.802 192.05 215.7C190.4 215.7 189.17 216.79 190.52 218.17C197.06 224.84 197.84 233.79 200.46 242.01C201.58 245.5 202.67 249.01 204.89 252.01C206.56 254.2 208.77 255.14 212.04 255.24Z" fill="#461905"/>
<path d="M379.04 113C381.55 113.39 382.21 112.12 382.89 111C385.89 106.25 386.8 100.89 387.44 95.47C387.784 91.2623 388.375 87.0784 389.21 82.9399C389.96 79.8299 390.67 76.7199 393.02 74.2999C393.64 73.6599 394.02 72.86 393.27 72.04C392.52 71.22 391.9 71.42 390.99 71.79C379.92 76.28 368.33 78.97 356.7 81.5C352.25 82.5 347.82 83.5 343.78 85.64C339.07 88.19 338.59 90.64 342.71 93.97C350.24 100.12 358.16 105.74 367.71 108.53C371.185 109.478 374.54 110.82 377.71 112.53C378.128 112.751 378.576 112.909 379.04 113Z" fill="#461905"/>
<path d="M360.72 34.24C358.97 22.57 354.87 15.47 344.16 12.34C343.844 12.5452 343.462 12.6237 343.09 12.56C342.89 12.56 342.74 12.65 342.55 12.64C342.71 12.42 343.05 12.47 343.18 12.21C339.88 11.1 336.58 11.53 333.28 12.21C332.61 12.92 331.86 12.51 331.13 12.38C328.594 12.6151 326.092 13.1316 323.67 13.92C320.51 14.86 319.47 16.83 321.34 19.38C327.45 27.67 334.2 35.38 344.79 38.17C348.25 39.1 351.62 40.52 355.22 40.74C357.22 40.85 359.68 41.6 360.67 38.74C360.527 37.2424 360.544 35.734 360.72 34.24Z" fill="#461905"/>
<path d="M250.35 307.85C255.35 307.64 259.87 306.5 261.89 301.13C262.56 299.34 262.89 298.02 260.21 297.95C258.73 297.95 257.97 296.34 256.65 295.83C251.39 293.83 246.25 291.46 240.58 290.71C239.792 290.9 238.978 290.96 238.17 290.89C238.081 290.906 237.99 290.898 237.905 290.866C237.821 290.834 237.746 290.78 237.69 290.71C238.05 290.97 238.3 290.78 238.52 290.5C228.89 288.34 219.52 287.98 211.28 294.66C210.07 295.66 209.03 296.78 207.8 297.75C205.35 299.69 205.87 302.06 208.91 302.95C214.112 304.39 219.445 305.301 224.83 305.67C230.5 306.12 236.16 306.61 241.78 307.42C244.642 307.133 247.531 307.278 250.35 307.85Z" fill="#461905"/>
<path d="M382.88 313.71C385.72 313.33 386.61 312.3 385.29 310.53C381.97 306.06 378.39 301.77 372.94 299.65C370.828 298.79 368.56 298.379 366.28 298.445C364 298.51 361.759 299.05 359.7 300.03C350.85 304.03 342.1 308.34 332.5 310.49C331.09 310.8 329.14 311.42 330.5 313.7C331.09 314.32 332.11 313.54 332.65 314.33C337.117 316.347 341.903 317.565 346.79 317.93C355.84 318.78 364.85 319.12 373.62 315.81C376.4 314.76 379.46 314.42 382.39 313.76C382.16 313.33 381.67 313.55 381.34 313.36C381.87 313.51 382.46 313.24 382.88 313.71Z" fill="#461905"/>
<path d="M409.68 257.15C402.6 254.61 390.11 256.95 384.13 263.5C377.43 270.769 369.287 276.56 360.22 280.5C358.67 281.19 356.13 281.41 356.22 283.45C356.29 285.84 359.09 284.81 360.55 285.59C361.655 286.162 362.924 286.331 364.14 286.07C365.234 285.665 366.436 285.665 367.53 286.07C374.76 285.61 381.48 283.7 387.35 279.32C395.07 273.58 401.72 266.6 409.3 260.71C409.619 260.38 409.895 260.01 410.12 259.61C410.175 258.766 410.024 257.922 409.68 257.15Z" fill="#461905"/>
<path d="M232.04 164.41C227.091 158.016 221.672 152 215.83 146.41C213.923 144.413 211.441 143.061 208.73 142.54C207.88 142.94 207.03 142.63 206.51 142.72C206.72 142.79 206.946 142.799 207.161 142.744C207.375 142.689 207.57 142.573 207.72 142.41C203.79 141.25 199.86 141.93 195.98 142.57C194.34 142.84 193.44 144.27 195.07 145.57C198.26 148.17 198.57 151.76 199.07 155.37C199.5 158.37 199.26 161.52 200.15 164.5C200.298 164.385 200.404 164.226 200.452 164.045C200.501 163.865 200.49 163.673 200.42 163.5C200.57 163.71 200.49 163.95 200.49 164.17C200.49 164.62 200.59 165.1 200.22 165.48C200.4 168.07 200.96 170.48 203.6 171.73C206.44 170.44 209.96 170.86 212.29 168.16C213.05 167.28 213.84 166.64 213.73 165.35C213.55 163.26 214.86 162.67 216.53 162.52C216.657 162.639 216.75 162.79 216.801 162.956C216.852 163.123 216.859 163.3 216.82 163.47C216.42 167.47 216.55 167.47 220.56 166.95C223.06 166.61 225.66 166.82 227.56 164.67C228.2 163.96 228.92 164.3 229.49 164.95C230.06 165.6 230.2 166.05 230.63 166.55C231.06 167.05 231.33 167.31 231.81 167.16C232.49 166.94 232.43 166.31 232.26 165.76C232.14 165.319 232.066 164.866 232.04 164.41Z" fill="#461905"/>
<path d="M241.27 59.6499C245.13 59.2199 249.55 57.32 253.87 55.2199C257.94 53.2199 261.71 50.7299 265.87 48.8799C268.24 47.8199 268.16 46.4999 265.87 45.1399C259.591 41.47 252.814 38.7282 245.75 36.9999C243.43 36.3899 241.12 35.4899 238.62 35.5899C235.32 35.7099 234.33 36.8799 235.24 39.9599C236.19 43.1899 236.01 46.4499 235.76 49.7199C235.53 51.7668 235.53 53.8331 235.76 55.8799C236.27 58.9699 237.12 59.6999 241.27 59.6499Z" fill="#461905"/>
<path d="M316.27 14.5201C316.711 14.6018 317.167 14.5328 317.564 14.3242C317.961 14.1156 318.277 13.7796 318.46 13.3701C318.287 12.9273 318.203 12.4545 318.213 11.979C318.223 11.5036 318.328 11.0349 318.52 10.6001C315.17 5.46005 311.06 1.73005 304.52 0.600052C301.659 -0.0524439 298.702 -0.164367 295.8 0.270052C291.18 1.17005 288.15 4.36005 284.99 7.37005C284.46 7.77198 284.067 8.32769 283.865 8.96128C283.663 9.59487 283.661 10.2754 283.86 10.9101C284.44 12.4901 285.92 12.2701 287.22 12.3701C295.22 13.0001 303.3 12.5901 311.22 14.3701C312.894 14.0438 314.619 14.095 316.27 14.5201Z" fill="#461905"/>
<path d="M399.27 188.57C399.41 191.4 399.27 193.67 401.52 194.74C403.77 195.81 405.67 194.34 407.45 193.07C408.899 191.855 410.043 190.317 410.79 188.58C414.35 181.99 416.29 174.64 420.7 168.44C421.94 166.69 420.96 165.23 418.77 165.5C413.12 166.19 407.87 167.8 404.07 172.5C402.6 174.3 402.39 176.42 401.95 178.5C401.14 182.11 399.54 185.56 399.27 188.57Z" fill="#461905"/>
<path d="M355.01 171.72C354.64 174.17 352.61 175.85 351.94 178.24C351.58 179.53 349.61 179.64 348.25 179.48C347.673 179.491 347.113 179.285 346.68 178.904C346.247 178.523 345.972 177.994 345.91 177.42C345.84 176.68 345.64 175.95 345.62 175.21C345.644 174.879 345.546 174.55 345.346 174.285C345.145 174.02 344.855 173.837 344.53 173.77C343.93 173.63 343.53 174.08 343.13 174.53C341.78 176.1 339.63 177.53 338.08 177.35C336 177.16 334 177.68 331.98 177.35C330.17 177.07 329.27 178.06 328.7 179.67C328.27 180.9 329 182.2 329.7 181.98C332.06 181.22 333.04 183.28 334.47 184.07C336.101 185.12 337.445 186.56 338.38 188.26C338.957 189.326 339.871 190.17 340.98 190.66C341.67 190.95 342.44 191.05 342.49 192.06C342.49 192.69 342.7 193.6 343.6 193.22C344.014 193.111 344.378 192.86 344.626 192.511C344.875 192.162 344.993 191.737 344.96 191.31C344.908 190.274 344.52 189.282 343.854 188.486C343.188 187.691 342.281 187.134 341.27 186.9C339.58 186.43 337.73 186.22 336.37 184.27C340.1 184.8 342.95 183.63 344.97 180.59C347.48 184.22 349.05 187.59 346.34 191.45C346.08 191.81 346.69 191.94 347.05 192C352.192 188.866 357.624 186.234 363.27 184.14C366.06 183.04 366.52 181.76 364.54 179.56C361.843 176.413 358.618 173.76 355.01 171.72Z" fill="#461905"/>
<path d="M404.5 207.24C403.467 207.298 402.44 207.438 401.43 207.66C399.35 208.28 397.79 208.94 397.32 211.76C396.55 216.39 393.91 220.45 391.47 224.47C389.637 227.309 388.15 230.358 387.04 233.55C386.41 235.5 386.15 237.55 387.83 239.06C389.51 240.57 391.26 239.5 392.91 238.87C397.16 237.23 400.07 234.03 402.36 230.29C404.374 226.903 406.049 223.326 407.36 219.61C406.36 217.7 404.03 217.21 403.01 215.1C402.36 213.73 401.82 213.01 402.54 211.45C403.315 210.107 403.971 208.698 404.5 207.24Z" fill="#461905"/>
<path d="M399.97 109.82C396.444 110.983 393.041 112.49 389.81 114.32C388.868 114.808 388.059 115.518 387.455 116.389C386.85 117.261 386.467 118.267 386.34 119.32C386.797 120.622 386.754 122.048 386.22 123.32C386.405 125.845 387.125 128.302 388.332 130.528C389.538 132.753 391.205 134.697 393.22 136.23C394.54 137.23 395.32 136.46 395.81 135.29C396.369 133.989 396.84 132.653 397.22 131.29C398.344 126.643 400.262 122.224 402.89 118.23C403.583 117.216 403.933 116.007 403.89 114.78C403.28 113.32 404.08 111.72 403.41 110.27C402.32 109.68 401.07 110.27 399.97 109.82Z" fill="#461905"/>
<path d="M381.81 53.54C383.05 51.1 381.65 49.54 379.75 48.54C376.68 46.79 373.21 46.19 369.75 45.68C369.05 45.68 368.27 46.29 367.67 45.44C365.99 44.71 364.4 44.44 363.1 46.14C363.24 47.2389 363.24 48.3511 363.1 49.45C363.711 51.321 364.737 53.0301 366.1 54.45C368.97 57.92 371.93 61.3 374.1 65.28C374.55 66.09 375.1 67.02 376.19 66.92C377.28 66.82 377.9 65.74 378.19 64.81C379.42 61.39 380.53 57.94 381.69 54.5C381.538 54.2811 381.467 54.0157 381.49 53.75C381.49 53.54 381.39 53.33 381.54 53.13C381.54 53.2171 381.566 53.3023 381.614 53.375C381.662 53.4478 381.73 53.5051 381.81 53.54Z" fill="#461905"/>
<path d="M262.27 210.06C262.87 211.25 263.94 212.06 263.68 213.82C263.4 215.72 266.33 216.61 268.19 215.08C270.82 212.91 273.3 213.33 276.04 214.8C278.78 216.27 282.04 216.36 284.37 218.57C284.529 218.642 284.702 218.675 284.876 218.667C285.05 218.658 285.219 218.608 285.37 218.52C289.45 215.13 294.15 217.21 298.57 217.14C300.09 217.14 301.72 216.5 303.21 217.38C303.03 214.32 300.6 213.23 298.39 211.93C297.89 211.713 297.367 211.555 296.83 211.46C295.757 211.442 294.685 211.499 293.62 211.63C290.35 214.5 288.94 214.26 286.73 210.45C286.562 210.225 286.412 209.988 286.28 209.74C284.87 205.39 281.68 204.86 277.78 205.82C277 205.39 276.1 206.15 275.34 205.57C270.47 205.59 266.33 207.74 262.27 210.06Z" fill="#461905"/>
<path d="M200.03 261.4C201.48 262.23 202.93 261.89 204.41 261.47C204.742 261.42 205.058 261.293 205.331 261.099C205.605 260.905 205.83 260.649 205.988 260.353C206.145 260.056 206.231 259.727 206.238 259.391C206.246 259.056 206.174 258.723 206.03 258.42C203.82 253.84 201.47 249.25 196.46 246.99C192.1 244.99 188.4 246.14 184.76 250.28C183.41 251.82 183.97 253.15 185.28 254.45C189.13 258.26 194.19 259.58 199.12 261.19C200.24 260.81 201.39 261.12 202.52 261.03C201.69 261.15 200.78 260.69 200.03 261.4Z" fill="#461905"/>
<path d="M202.55 194.68C202.22 189.43 198.98 186.15 192.25 184.25C190.443 184.655 188.82 185.642 187.63 187.06C187.163 187.556 186.828 188.16 186.653 188.818C186.478 189.477 186.47 190.168 186.63 190.83C188.642 195.279 190.889 199.618 193.36 203.83C200.12 203.59 201.13 200.59 202.55 194.68Z" fill="#461905"/>
<path d="M232.04 164.41C230.88 165.04 232.28 166.1 231.67 166.84C230.77 166.45 231.01 165.51 230.57 164.9C229.42 163.3 228.18 162.55 226.68 164.44C226.142 165.099 225.437 165.602 224.638 165.894C223.839 166.186 222.976 166.257 222.14 166.1C221.472 166.065 220.803 166.092 220.14 166.18C219.24 166.25 218.3 167.57 217.61 166.71C217.267 166.199 217.09 165.594 217.103 164.979C217.115 164.364 217.317 163.767 217.68 163.27C218.74 161.67 217.83 161.52 216.56 161.61C213.79 161.81 212.8 162.98 213.07 165.69C213.19 166.92 209.26 170.01 207.4 170.01C205.81 170.01 204.35 170.06 203.6 171.76C205.036 172.426 206.597 172.784 208.18 172.81C209.469 172.431 210.841 172.431 212.13 172.81C215.33 172.73 218.51 172.81 221.63 171.62C224.27 170.62 227.17 170.56 229.99 170.27C231.29 170.13 233.14 170.59 233.71 168.87C234.28 167.15 233.49 165.56 232.04 164.41Z" fill="#461905"/>
<path d="M299.18 203.98C298.89 203.16 299.18 198.24 299.82 197.38C300.62 196.27 299.66 195.86 299.15 195.32C298.03 194.14 297.15 192.97 298.61 191.48C299 191.08 299.14 190.7 298.76 190.27C298.38 189.84 297.83 190.03 297.27 190.27C295.53 191.01 294.78 192.78 292.75 193.54C289.063 194.925 284.995 194.907 281.32 193.49C279.58 192.89 278.62 190.79 276.48 190.89C276.39 190.939 276.315 191.011 276.263 191.099C276.211 191.187 276.184 191.288 276.184 191.39C276.184 191.492 276.211 191.593 276.263 191.681C276.315 191.769 276.39 191.841 276.48 191.89C278.42 193.44 280.41 194.95 282.39 196.43C287.403 200.083 293.121 202.654 299.18 203.98Z" fill="#461905"/>
<path d="M298.09 212.29C300.18 213.6 302.09 215.05 303.21 217.36C306.03 217.36 308.87 217.49 311.66 217.18C313.16 217.02 315.11 216.73 315.22 214.47C314.06 214.56 312.81 214.85 312.39 213.25C306.546 210.484 300.461 208.261 294.21 206.61C293.05 206.29 291.84 206.48 290.66 206.19C289.79 205.97 288.66 205.85 288.26 206.96C287.86 208.07 288.83 208.84 289.76 209.31C291.24 210.06 292.92 210.46 294.11 211.72C295.06 212.79 296.01 212.12 296.96 211.72C297.183 211.7 297.407 211.743 297.606 211.844C297.806 211.945 297.974 212.099 298.09 212.29Z" fill="#461905"/>
<path d="M202.55 194.68C202.05 195.98 201.33 197.19 200.79 198.47C199.79 200.82 198.43 203.28 195.02 202.73C194.22 202.6 193.5 202.81 193.4 203.82C194.77 207.2 196.7 210.1 200.4 211.43C203.65 212.6 205.92 211.22 205.97 207.79C206.01 203.15 204.13 198.94 202.55 194.68Z" fill="#461905"/>
<path d="M390.83 192.06C389.74 192.06 388.65 192.82 387.55 192.06C388.11 193.54 386.18 194.17 386.31 195.48C386.94 201.72 384.81 207.87 385.72 214.12C386.02 216.17 387.16 217.33 389.26 217.24C390.09 217.24 390.34 217.47 390.26 218.12C390.08 219.21 389.67 218.19 389.35 218.18C388.69 218.18 388.09 218.37 388.65 219.09C389.65 220.38 388.91 221.83 389.22 223.17C390.569 220.858 391.496 218.326 391.96 215.69C390.26 214.14 390.16 212.32 390.49 210.12C391.07 206.26 390.1 202.32 390.88 198.4C390.967 197.584 391.221 196.795 391.625 196.082C392.029 195.368 392.575 194.744 393.23 194.25C392.605 193.348 391.785 192.6 390.83 192.06Z" fill="#461905"/>
<path d="M393.2 194.22C390.74 193.86 390.64 195.53 390.2 197.29C389.2 201.87 390.43 206.56 389.53 211.07C389.03 213.63 389.48 214.93 391.89 215.66C392.582 214.459 392.967 213.105 393.01 211.72C392.39 210.77 392.35 209.95 393.57 209.45C395.22 205.95 395 202.05 395.95 198.38C396.43 196.65 394.65 195.29 393.2 194.22Z" fill="#461905"/>
<path d="M404.5 207.24C401.84 208.37 402.56 211.65 400.65 213.24C400.857 213.729 401.152 214.177 401.52 214.56C401.9 214.95 402.83 215.22 402.83 215.56C402.83 218.61 405.73 218.37 407.33 219.56C407.568 219.372 407.752 219.123 407.861 218.84C407.97 218.557 408.001 218.249 407.95 217.95C408.71 217.35 407.03 215.72 408.95 215.59C409.67 213.8 410.44 212.02 411.07 210.19C412.02 207.49 411.15 206.37 408.22 206.58C407.14 206.65 405.96 206.36 404.97 207.08C405.91 207.75 406.97 207.3 407.32 207.35C406.97 207.25 405.9 207.81 404.96 207.08C404.92 207.057 404.876 207.042 404.829 207.038C404.783 207.033 404.737 207.039 404.693 207.054C404.649 207.069 404.609 207.094 404.576 207.126C404.543 207.158 404.517 207.197 404.5 207.24Z" fill="#461905"/>
<path d="M294.11 211.72C294.77 210.17 293.24 210.1 292.53 209.64C291.677 209.259 290.794 208.948 289.89 208.71C289.28 208.46 288.62 207.99 288.7 207.3C288.82 206.39 289.7 206.7 290.32 206.66C291.61 206.58 292.91 207.12 294.21 206.66C288.79 204.87 283.31 203.97 277.65 205.46C277.582 205.507 277.529 205.572 277.497 205.648C277.465 205.725 277.455 205.809 277.47 205.89C277.47 206.05 277.56 206.13 277.6 206.13C284.3 206.13 284.6 206.26 286.67 212.47C287.3 214.39 288.87 214.15 290.05 214.37C292 214.71 293.35 213.5 294.11 211.72Z" fill="#461905"/>
<path d="M340.81 196.6C340.34 194.35 338.23 194.6 336.71 193.99C332.27 192.06 332.2 192.06 332.27 197.11C332.27 198.93 332.27 200.57 330.62 201.87C329.75 202.58 329.68 203.87 329.41 204.92C333.88 203.06 337.32 199.8 340.81 196.6Z" fill="#461905"/>
<path d="M273.61 189.78C272.21 186.78 273.14 184.78 275.94 183.06C277.87 181.87 279.62 180.11 278.72 177.34C275.844 179.421 272.749 181.182 269.49 182.59C268.945 182.828 268.479 183.218 268.147 183.712C267.816 184.206 267.633 184.785 267.62 185.38C267.44 186.65 268.48 187.09 269.42 187.56C270.83 188.27 272.21 189.06 273.61 189.78Z" fill="#461905"/>
<path d="M360.14 189.85L362.74 194.07C363.07 193.89 363.3 193.84 363.36 193.71C363.73 192.87 362.36 191.44 363.95 191.12C365.08 190.91 365.95 191.71 366.45 192.96C366.98 194.386 367.824 195.675 368.92 196.73C368.74 195.37 368.63 193.99 368.37 192.64C368.242 192.296 368.183 191.929 368.197 191.562C368.21 191.195 368.296 190.834 368.45 190.5C369.82 188.03 369.3 187.23 366.19 186.85C363.937 187.278 361.845 188.316 360.14 189.85Z" fill="#461905"/>
<path d="M281.59 175.73C282.59 177.73 283.89 179.12 286.31 179.04C287.1 179.04 288.11 178.95 288.18 178.12C288.37 175.72 290.18 175.46 291.92 175.12C292.43 175.01 292.84 174.81 292.84 174.25C292.846 174.154 292.831 174.059 292.798 173.969C292.764 173.879 292.713 173.797 292.646 173.729C292.579 173.66 292.499 173.606 292.41 173.57C292.321 173.534 292.226 173.517 292.13 173.52C289.85 173.75 289.29 171.82 288.21 170.52L287.3 171.28C287.7 172.66 286.54 173.2 285.77 173.91C285.34 174.31 285.67 173.76 285.65 173.71C285.35 173 284.87 173.1 284.33 173.39C283.182 173.844 282.218 174.667 281.59 175.73Z" fill="#461905"/>
<path d="M186.67 190.86C187.42 188.28 188.48 185.97 191.43 185.23C191.657 185.176 191.86 185.048 192.008 184.868C192.156 184.687 192.241 184.463 192.25 184.23C189.906 183.266 187.412 182.715 184.88 182.6C184.458 182.527 184.024 182.584 183.635 182.762C183.246 182.941 182.92 183.233 182.7 183.6C182.19 184.47 182.64 185.16 183.16 185.87C184.35 187.5 185.5 189.19 186.67 190.86Z" fill="#461905"/>
<path d="M346.93 198.57C347.8 200.18 350.59 198.22 350.76 200.8C350.933 200.755 351.095 200.674 351.235 200.563C351.375 200.452 351.491 200.314 351.574 200.156C351.658 199.998 351.708 199.824 351.721 199.646C351.734 199.467 351.71 199.288 351.65 199.12C350.65 197.32 351.97 196.53 353.1 195.81C355.16 194.5 353.58 194.48 352.59 194.21C350.79 195.77 348.27 196.45 346.93 198.57Z" fill="#461905"/>
<path d="M284.33 173.37C285.65 173.73 284.27 175.57 285.81 175.84C286.27 175.16 285.16 173.24 287.7 173.84C288.64 174.07 287.91 172.12 287.3 171.25C286.165 171.728 285.151 172.452 284.33 173.37Z" fill="#461905"/>
<path d="M250.35 307.85C250.35 307.53 251.35 306.99 250.6 307.01C247.66 307.11 244.67 306.33 241.78 307.42C244.63 307.7 247.46 308.31 250.35 307.85Z" fill="#461905"/>
<path d="M271.9 305.77C274.48 306.693 277.293 306.735 279.9 305.89C277.27 305.52 274.58 304.59 271.9 305.77Z" fill="#461905"/>
<path d="M309.27 306.47L312.27 306.24C309.06 305.68 305.82 306.11 302.63 305.5L304.3 306.26L309.27 306.47Z" fill="#461905"/>
<path d="M303.27 319.82C303.17 319.17 303.42 318.07 302.21 318.52C301 318.97 299.56 319.39 300.51 321.22C301.558 321.067 302.528 320.576 303.27 319.82Z" fill="#461905"/>
<path d="M290.12 16.21C292.707 17.1154 295.522 17.133 298.12 16.26C295.473 15.814 292.772 15.7972 290.12 16.21Z" fill="#461905"/>
<path d="M312.39 213.25C312.261 213.415 312.172 213.608 312.13 213.813C312.087 214.018 312.092 214.23 312.144 214.433C312.197 214.635 312.294 214.824 312.431 214.983C312.567 215.142 312.738 215.267 312.93 215.35C314.13 216.14 314.53 214.94 315.22 214.47C314.419 213.791 313.434 213.366 312.39 213.25Z" fill="#461905"/>
<path d="M408.95 215.64C408.43 215.41 408.33 214.31 407.44 214.88C406.72 215.34 406.9 215.88 407.32 216.52C407.584 216.988 407.796 217.485 407.95 218C408.27 217.22 408.62 216.43 408.95 215.64Z" fill="#461905"/>
<path d="M360.72 34.24C360.277 34.9064 360.036 35.6871 360.027 36.4876C360.018 37.288 360.241 38.0739 360.67 38.75C361.011 38.0486 361.192 37.2804 361.201 36.5006C361.209 35.7208 361.045 34.9488 360.72 34.24Z" fill="#461905"/>
<path d="M393.61 209.45C393.2 209.45 392.99 208.21 392.47 209.16C391.95 210.11 391.29 211.22 393.05 211.72L393.61 209.45Z" fill="#461905"/>
<path d="M299.34 271.79C299.001 272.211 298.807 272.731 298.787 273.272C298.767 273.812 298.923 274.345 299.23 274.79C301.27 273.88 300.55 272.84 299.34 271.79Z" fill="#461905"/>
<path d="M231 81.56C231.368 80.981 231.57 80.3121 231.584 79.6262C231.598 78.9403 231.424 78.2637 231.08 77.67C230.44 78.96 230.1 80.25 231 81.56Z" fill="#461905"/>
<path d="M268.54 313.12C268.935 312.448 269.151 311.686 269.166 310.907C269.182 310.127 268.997 309.357 268.63 308.67C268.021 310.085 267.989 311.682 268.54 313.12Z" fill="#461905"/>
<path d="M248.73 249.96L247.63 250.16C249.27 250.44 250.91 251.01 252.54 250.16L248.73 249.96Z" fill="#461905"/>
<path d="M209.38 266.92C210.142 265.894 210.498 264.623 210.38 263.35C209.72 264.44 207.81 265.2 209.38 266.92Z" fill="#461905"/>
<path d="M306.61 313.14C306.221 313.608 306.003 314.196 305.992 314.805C305.981 315.413 306.178 316.008 306.55 316.49C307.09 315.38 307.47 314.27 306.61 313.14Z" fill="#461905"/>
<path d="M312.35 206.72C311.05 206.06 309.81 205 308.27 206.2C309.558 206.74 310.968 206.92 312.35 206.72Z" fill="#461905"/>
<path d="M398.77 170.62C398.77 171.06 398.85 171.51 398.88 171.95C399.537 170.462 399.932 168.872 400.05 167.25C399.52 167.42 399.4 167.85 399.35 168.33C399.125 168.402 398.921 168.529 398.759 168.702C398.597 168.874 398.481 169.084 398.423 169.314C398.365 169.543 398.366 169.783 398.427 170.012C398.488 170.24 398.606 170.45 398.77 170.62Z" fill="#461905"/>
<path d="M299.27 127.73C298.483 127.318 297.608 127.103 296.72 127.103C295.832 127.103 294.957 127.318 294.17 127.73C295.861 127.98 297.579 127.98 299.27 127.73Z" fill="#461905"/>
<path d="M276.48 191.83V190.83C275.6 190.24 275 188.94 273.59 189.73L276.48 191.83Z" fill="#461905"/>
<path d="M324.27 206.68C324.094 206.472 323.876 206.304 323.629 206.189C323.382 206.075 323.112 206.015 322.84 206.015C322.568 206.015 322.298 206.075 322.051 206.189C321.804 206.304 321.586 206.472 321.41 206.68C321.21 206.77 321.15 206.87 321.21 206.97C321.27 207.07 321.34 207.11 321.41 207.11C322.385 207.28 323.388 207.129 324.27 206.68Z" fill="#461905"/>
<path d="M339.06 83.25C338.276 82.8483 337.411 82.6314 336.53 82.6158C335.65 82.6002 334.777 82.7863 333.98 83.16C335.658 83.4549 337.372 83.4852 339.06 83.25Z" fill="#461905"/>
<path d="M316.27 14.52C315.488 14.1139 314.622 13.8944 313.741 13.8788C312.859 13.8632 311.986 14.0519 311.19 14.43C312.856 14.8347 314.591 14.8654 316.27 14.52Z" fill="#461905"/>
<path d="M363.55 111.49C364.337 111.862 365.195 112.063 366.065 112.078C366.936 112.094 367.8 111.924 368.6 111.58C366.934 111.26 365.226 111.23 363.55 111.49Z" fill="#461905"/>
<path d="M348.32 233.06L346.45 233.34C347.8 233.6 349.15 234.11 350.45 233.23L348.32 233.06Z" fill="#461905"/>
<path d="M212.09 117.52C213.38 116.3 212.82 115.01 212.25 113.72C212.2 114.98 212.14 116.25 212.09 117.52Z" fill="#461905"/>
<path d="M344.74 277.59C344.055 277.204 343.284 276.997 342.498 276.986C341.711 276.976 340.935 277.163 340.24 277.53L344.74 277.59Z" fill="#461905"/>
<path d="M200.03 261.4L203.03 261.18C201.7 260.75 200.38 260.41 199.09 261.18L200.03 261.4Z" fill="#461905"/>
<path d="M403.38 110.28C403.58 111.78 402.85 113.37 403.86 114.79C403.98 113.26 404.66 111.67 403.38 110.28Z" fill="#461905"/>
<path d="M363.07 49.43C363.405 48.9431 363.584 48.366 363.584 47.775C363.584 47.184 363.405 46.6069 363.07 46.12C362.764 46.6178 362.602 47.1907 362.602 47.775C362.602 48.3593 362.764 48.9322 363.07 49.43Z" fill="#461905"/>
<path d="M399.97 109.82C400.97 110.73 402.25 110.14 403.4 110.29C402.39 109.15 401.19 109.4 399.97 109.82Z" fill="#461905"/>
<path d="M273.66 197.54V200.32C274.64 199.41 274.97 198.48 273.66 197.54Z" fill="#461905"/>
<path d="M321.42 207.12C321.41 206.973 321.41 206.826 321.42 206.68C320.09 206.83 318.67 206.17 317.42 207.17L321.42 207.12Z" fill="#461905"/>
<path d="M386.27 123.3C386.738 122.745 387.005 122.047 387.027 121.321C387.049 120.595 386.824 119.883 386.39 119.3C386.034 120.605 385.993 121.976 386.27 123.3Z" fill="#461905"/>
<path d="M253.77 107.46C253.934 107.331 254.068 107.166 254.162 106.979C254.255 106.792 254.306 106.586 254.311 106.377C254.316 106.168 254.274 105.96 254.189 105.768C254.105 105.577 253.978 105.407 253.82 105.27C253.17 105.99 252.75 106.71 253.77 107.46Z" fill="#461905"/>
<path d="M212.15 172.78C211.562 172.399 210.876 172.196 210.175 172.196C209.474 172.196 208.788 172.399 208.2 172.78H212.15Z" fill="#461905"/>
<path d="M342.06 43.74L340.27 44.06C341.7 44.44 342.67 44.66 343.56 43.89L342.06 43.74Z" fill="#461905"/>
<path d="M277.6 206.06V205.39C276.8 204.86 276.05 205.32 275.29 205.52C275.95 206.35 276.82 206.06 277.6 206.06Z" fill="#461905"/>
<path d="M336.2 228.58C335.31 227.74 334.77 227.97 334.52 229.11C335.15 229.16 335.78 229.19 336.2 228.58Z" fill="#461905"/>
<path d="M330.55 43.33C331.036 43.7127 331.639 43.915 332.258 43.9022C332.876 43.8894 333.47 43.6625 333.94 43.26L330.55 43.33Z" fill="#461905"/>
<path d="M300.47 309.14L298.07 309.41C299.63 309.82 300.59 310.03 301.48 309.26L300.47 309.14Z" fill="#461905"/>
<path d="M207.72 142.38L205.38 142.65C206.87 143.05 207.83 143.25 208.73 142.51L207.72 142.38Z" fill="#461905"/>
<path d="M409.68 257.15C409.68 257.98 409.37 258.87 410.09 259.58C410.64 258.65 410.87 257.78 409.68 257.15Z" fill="#461905"/>
<path d="M288.02 307.41C287.843 307.439 287.672 307.493 287.51 307.57C287.26 307.74 287.17 308.02 287.57 308.02C288.43 308.02 289.37 308.36 290.1 307.57L288.02 307.41Z" fill="#461905"/>
<path d="M318 306.9C317.518 306.52 316.923 306.314 316.31 306.314C315.697 306.314 315.102 306.52 314.62 306.9H318Z" fill="#461905"/>
<path d="M327.27 159.83L325.35 160.12C326.96 160.5 327.93 160.72 328.83 159.99L327.27 159.83Z" fill="#461905"/>
<path d="M238.52 290.5C238.344 290.532 238.173 290.586 238.01 290.66C237.78 290.81 237.62 291.1 238.01 291.11C238.87 291.11 239.8 291.44 240.55 290.71L238.52 290.5Z" fill="#461905"/>
<path d="M367.5 286.06C367.022 285.668 366.423 285.453 365.805 285.453C365.187 285.453 364.588 285.668 364.11 286.06H367.5Z" fill="#461905"/>
<path d="M367.66 45.42C368.23 46.58 368.99 46.11 369.74 45.66L367.66 45.42Z" fill="#461905"/>
<path d="M312.32 159.9C312.93 160.65 313.72 160.49 314.55 160.33C314.35 159.62 313.71 160.05 313.34 159.83L312.32 159.9Z" fill="#461905"/>
<path d="M300.89 57.93C301.67 57.38 301.68 56.8 300.89 56.22C300.703 56.4656 300.601 56.766 300.601 57.075C300.601 57.3839 300.703 57.6843 300.89 57.93Z" fill="#461905"/>
<path d="M200.27 165.51C201.03 164.91 200.85 164.13 200.7 163.31C199.99 163.52 200.42 164.15 200.2 164.5C200.19 164.84 200.27 165.18 200.27 165.51Z" fill="#461905"/>
<path d="M331.13 12.38C331.89 12.95 332.64 13.26 333.28 12.21L331.13 12.38Z" fill="#461905"/>
<path d="M343.18 12.21L341.43 12.5C342.7 12.91 343.43 13.06 344.16 12.34L343.18 12.21Z" fill="#461905"/>
<path d="M268.52 54.06C269.52 54.75 270.46 54.92 271.33 53.87L268.52 54.06Z" fill="#461905"/>
<path d="M315.75 159.4C316.51 159.99 317.26 160.33 317.92 159.26L315.75 159.4Z" fill="#461905"/>
<path d="M318.55 10.6C318.184 10.9646 317.974 11.4566 317.963 11.9729C317.951 12.4892 318.14 12.9898 318.49 13.37C318.799 12.4757 318.82 11.5068 318.55 10.6Z" fill="#461905"/>
<path d="M381.81 53.54L381.51 51.79C381.12 53.05 380.93 53.79 381.66 54.51L381.81 53.54Z" fill="#461905"/>
<path d="M215.38 176.17C216.1 175.76 217.26 177 217.7 175.56C216.88 175.497 216.063 175.712 215.38 176.17Z" fill="#461905"/>
<path d="M254.47 250.5C254.22 250.6 253.84 250.64 253.77 250.81C253.61 251.19 254.02 251.13 254.23 251.14C254.85 251.14 255.51 251.26 255.97 250.65L254.47 250.5Z" fill="#461905"/>
<path d="M382.88 313.71C382.28 312.94 381.5 313.08 380.66 313.27C381.13 313.99 381.88 313.52 382.43 313.76L382.66 313.81L382.88 313.71Z" fill="#461905"/>
<path d="M332.69 314.33C332.49 313.69 332.49 313.69 330.54 313.7C330.98 314.84 331.97 314.12 332.69 314.33Z" fill="#461905"/>
<path d="M312.91 277.17C313.303 277.525 313.82 277.709 314.349 277.683C314.878 277.656 315.374 277.422 315.73 277.03L312.91 277.17Z" fill="#461905"/>
<path d="M310.17 155.7C312.28 155.7 314.51 156.56 316.42 154.83C314.41 155.84 312.27 155.19 310.17 155.7Z" fill="#461905"/>
<path d="M278.17 188.61C278.522 188.681 278.885 188.668 279.231 188.57C279.576 188.473 279.894 188.295 280.157 188.05C280.419 187.806 280.62 187.503 280.743 187.165C280.865 186.828 280.905 186.466 280.86 186.11C280.804 185.356 280.481 184.646 279.95 184.107C279.419 183.569 278.713 183.237 277.96 183.17C276.14 183.1 275.71 185.08 275.6 186.42C275.571 186.749 275.621 187.081 275.746 187.387C275.871 187.693 276.068 187.964 276.319 188.179C276.571 188.393 276.87 188.544 277.192 188.619C277.514 188.694 277.849 188.691 278.17 188.61Z" fill="#461905"/>
<path d="M367.65 210.49C368.38 209.22 367.55 208.49 367.16 207.7C366.52 206.38 365.87 205.16 367.35 203.94C367.548 203.804 367.685 203.596 367.73 203.359C367.775 203.123 367.724 202.879 367.59 202.68C367.28 202.24 366.81 202.26 366.32 202.44C365.236 202.8 364.064 202.8 362.98 202.44C361.56 202.04 361.68 203.44 361.11 204.08C360.794 204.352 360.571 204.717 360.473 205.122C360.374 205.527 360.405 205.953 360.56 206.34C360.66 206.54 361.56 206.34 362.09 206.34C362.18 207.44 360.92 207.25 360.69 207.83C360.32 208.74 359.6 209.95 360.45 210.67C361.3 211.39 361.77 210.13 362.33 209.6C364.52 207.55 364.95 207.61 367.65 210.49Z" fill="#461905"/>
<path d="M371.42 185.74C372.13 186.53 372.93 186.55 374.09 185.95L371.42 185.75V185.74Z" fill="#461905"/>
<path d="M388.57 173.41C389.34 172.66 389.35 171.34 390.57 170.92C391.12 170.74 391.57 170.01 391.31 169.57C389.21 166.17 392.42 163.15 391.95 159.89C389.41 161.55 390.03 164.54 389.3 166.89C388.795 169.026 388.55 171.215 388.57 173.41Z" fill="#461905"/>
<path d="M391.98 159.89C393.62 157.95 396.7 157.29 397.1 154.25C395.78 154.78 395.17 156.25 393.32 156.34C391.73 156.43 391.97 158.49 391.98 159.89Z" fill="#461905"/>
<path d="M278.97 213.42C279.68 213.27 280.9 213.75 280.87 212.42C280.81 210.03 278.54 210.77 277.24 210.18C276.51 209.85 275.9 210.29 275.97 211.18C276.11 212.95 277.33 213.45 278.97 213.42Z" fill="#461905"/>
<path d="M298.09 212.29C298.16 211.95 298.55 211.56 298.09 211.29C297.988 211.232 297.875 211.196 297.757 211.185C297.64 211.174 297.522 211.189 297.411 211.228C297.3 211.267 297.199 211.329 297.114 211.41C297.029 211.492 296.963 211.591 296.92 211.7C297.034 211.904 297.206 212.069 297.415 212.174C297.623 212.279 297.858 212.32 298.09 212.29Z" fill="#461905"/>
<path d="M404.43 153.69C405.43 151.17 406.49 148.69 407.43 146.14C408.37 143.59 407.62 142.69 405.05 142.92C394.5 143.83 384.77 146.81 376.35 153.55C371.35 157.55 366.15 161.33 359.9 163.29C355.3 164.73 355.14 167.29 358.9 170.29C365.722 175.704 373.535 179.736 381.9 182.16C382.727 182.334 383.566 182.448 384.41 182.5C385.64 183.09 386.7 181.96 387.93 182.16C388.76 182.3 390.78 182.03 391.15 181.16C391.52 180.29 389.39 180.23 388.91 179.75C388.558 179.379 388.326 178.91 388.246 178.405C388.165 177.9 388.24 177.382 388.46 176.92C388.933 175.815 389.216 174.639 389.3 173.44C389.78 169.12 397.57 171.74 399.48 167.71C399.64 167.49 392.22 160.24 392.33 159.99C392.33 159.99 395.84 156.64 397.56 154.94C399.57 152.83 402.21 154.41 404.43 153.69Z" fill="#461905"/>
<path d="M388.57 173.41C388.59 174.428 388.327 175.432 387.81 176.31C386.65 178.63 387.39 180.19 390.59 181.21C387.95 181.35 386.09 181.56 384.44 182.47C389.92 184.31 393.57 183.57 395.88 180.15C395.74 179.62 395.72 178.96 395.02 178.87C393.47 178.69 393.41 178.71 393.62 177.42C393.876 175.397 393.943 173.355 393.82 171.32C393.48 170.25 393.387 169.116 393.546 168.005C393.705 166.893 394.113 165.832 394.74 164.9C396.24 162.4 396.55 164.74 397.24 165.51C397.43 165.84 397.63 166.15 397.81 166.51C398.3 167.18 398.13 168.33 399.3 168.51C399.79 168.25 399.5 167.51 400.05 167.29C400.367 165.581 400.084 163.815 399.25 162.29C398.95 161.38 396.63 161.66 397.81 159.88C398.92 159.23 399.68 159.67 400.34 160.59C400.68 161.05 400.83 161.84 401.71 161.59L404.47 153.7C401.94 152.84 399.47 152.45 397.14 154.26C396.14 155.59 395.26 157.07 393.56 157.69C392.56 158.07 392.48 159.12 392.02 159.9C391.16 162.84 389.52 165.6 390.34 168.9C390.73 170.64 388.51 171.65 388.57 173.41Z" fill="#461905"/>
<path d="M393.12 171.16C392.97 173.43 393.46 175.75 392.66 178C392.507 178.332 392.462 178.704 392.532 179.063C392.602 179.422 392.783 179.75 393.05 180C394.05 180.88 394.1 179.6 394.61 179.32C395.28 178.95 395.4 179.9 395.88 180.11C397.669 177.737 398.713 174.887 398.88 171.92C399.043 171.521 399.088 171.084 399.01 170.66C398.38 170.05 397.69 170.41 397.01 170.52C395.78 171.2 394.32 170.37 393.12 171.16Z" fill="#461905"/>
<path d="M398.81 162.14L400.01 167.29C400.57 165.39 401.123 163.487 401.67 161.58C400.67 159.77 399.92 157.5 397.1 159.32C396.19 161.14 397.55 161.61 398.81 162.14Z" fill="#461905"/>
<path d="M393.12 171.16C394.45 171.44 395.78 172.16 397.12 171.16C399.03 169.8 398.07 167.82 398.26 166.09L397.69 165.52C396.76 164.52 396.12 162.68 394.28 164.4C393.06 166.51 391.88 168.63 393.12 171.16Z" fill="#461905"/>
<path d="M398.27 166.06C397.2 167.59 398.21 169.59 397.13 171.13L398.8 170.59C399 169.82 399.19 169.06 399.38 168.3C398.46 167.83 399.16 166.57 398.27 166.06Z" fill="#461905"/>
<path d="M394.27 164.4C395.81 163.57 396.58 165.04 397.68 165.52C397.44 164.44 397.29 163.15 395.97 162.93C395.759 162.896 395.542 162.91 395.337 162.968C395.131 163.027 394.94 163.13 394.778 163.27C394.617 163.41 394.487 163.584 394.399 163.779C394.312 163.974 394.267 164.186 394.27 164.4Z" fill="#461905"/>
<path d="M398.81 162.14C397.99 161.35 396.81 160.79 397.1 159.32C395.89 161.32 396.47 162.26 398.81 162.14Z" fill="#461905"/>
<path d="M400.15 154.93C400.427 155.153 400.721 155.353 401.03 155.53C401.31 155.31 401.66 155.09 401.78 154.79C401.9 154.49 401.6 154.37 401.32 154.47C401.04 154.57 400.62 154.74 400.15 154.93Z" fill="#461905"/>
<path d="M404.96 207.13C406.04 208.3 407.3 207.55 408.5 207.33L404.97 207.13H404.96Z" fill="#461905"/>
<path d="M567.81 188.63H26.87C12.0301 188.63 0 200.66 0 215.5V221.78C0 236.62 12.0301 248.65 26.87 248.65H567.81C582.65 248.65 594.68 236.62 594.68 221.78V215.5C594.68 200.66 582.65 188.63 567.81 188.63Z" fill="white"/>
<path d="M36.66 214.83C36.7016 214.699 36.7317 214.566 36.75 214.43C36.75 214.29 36.75 214.11 36.75 213.91C36.75 213.71 36.48 213.25 35.95 212.91C35.2834 212.526 34.5712 212.227 33.83 212.02C32.8455 211.73 31.8434 211.503 30.83 211.34C29.6524 211.155 28.4621 211.061 27.27 211.06C26.0213 211.067 24.7772 211.211 23.56 211.49C22.3052 211.765 21.1031 212.241 20 212.9C18.8913 213.548 17.9549 214.454 17.27 215.54C16.5544 216.747 16.2069 218.138 16.27 219.54C16.2098 220.942 16.5571 222.331 17.27 223.54C17.96 224.576 18.8807 225.439 19.96 226.06C21.061 226.723 22.2639 227.199 23.52 227.47C24.7372 227.749 25.9813 227.893 27.23 227.9C28.0421 227.868 28.8509 227.778 29.65 227.63C30.7645 227.44 31.8665 227.183 32.95 226.86C33.9483 226.569 34.9215 226.198 35.86 225.75C36.71 225.34 37.13 224.91 37.13 224.46C37.1381 224.288 37.0964 224.118 37.01 223.97C36.9212 223.833 36.8443 223.69 36.78 223.54L37.42 223.11L43.49 232.76L42.78 233.19C42.7305 233.019 42.6154 232.876 42.46 232.79C42.301 232.727 42.131 232.696 41.96 232.7C41.3857 232.784 40.8287 232.96 40.31 233.22C39.2604 233.646 38.1889 234.017 37.1 234.33C35.5808 234.753 34.0382 235.087 32.48 235.33C30.4971 235.656 28.4895 235.81 26.48 235.79C24.1144 235.791 21.7596 235.472 19.48 234.84C17.227 234.241 15.1068 233.223 13.23 231.84C11.385 230.459 9.86025 228.695 8.76 226.67C7.58117 224.449 6.99236 221.963 7.05 219.45C6.9937 216.937 7.58243 214.451 8.76 212.23C9.87926 210.22 11.4173 208.474 13.27 207.11C15.1578 205.722 17.2726 204.673 19.52 204.01C21.7914 203.334 24.1502 202.997 26.52 203.01C28.5571 202.992 30.5928 203.125 32.61 203.41C34.0681 203.63 35.5135 203.927 36.94 204.3C38.08 204.63 38.94 204.91 39.59 205.13C40.0421 205.319 40.5215 205.433 41.01 205.47C41.186 205.469 41.3588 205.423 41.5126 205.337C41.6664 205.252 41.7961 205.129 41.89 204.98L42.54 205.16L37.27 215.26L36.66 214.83Z" fill="#96B433"/>
<path d="M85.6 233.83C85.5957 234.09 85.6925 234.341 85.87 234.53C86.2802 234.797 86.7605 234.936 87.25 234.93V235.67H76.06V234.93C76.5497 234.938 77.0305 234.799 77.44 234.53C77.6174 234.341 77.7142 234.09 77.71 233.83V213.91L71.05 221.68C69.21 223.83 67.66 225.68 66.4 227.09L63.4 230.6C62.63 231.48 62.05 232.17 61.66 232.66C61.3775 232.997 61.1201 233.355 60.89 233.73C60.7974 233.893 60.7395 234.074 60.72 234.26C60.7198 234.357 60.7435 234.452 60.7888 234.538C60.8341 234.623 60.8998 234.696 60.98 234.75C61.322 234.902 61.6972 234.964 62.07 234.93V235.67H50.85V234.93C51.3425 234.936 51.8259 234.797 52.24 234.53C52.4138 234.339 52.5069 234.088 52.5 233.83V205.18C52.5096 204.918 52.4162 204.664 52.24 204.47C51.8259 204.203 51.3425 204.064 50.85 204.07V203.33H61.63V204.06C60.81 204.14 60.39 204.51 60.39 205.17V222.17C61.1 221.39 61.94 220.43 62.93 219.31C63.92 218.19 64.93 216.99 65.99 215.74C67.05 214.49 68.1 213.24 69.14 211.99C70.18 210.74 71.14 209.6 71.94 208.58C72.74 207.56 73.43 206.7 73.94 206.03C74.2581 205.673 74.518 205.268 74.71 204.83C74.706 204.722 74.6734 204.617 74.6154 204.525C74.5574 204.434 74.4762 204.36 74.38 204.31C73.9681 204.114 73.5159 204.018 73.06 204.03V203.29H87.27V204.06C86.7805 204.054 86.3002 204.193 85.89 204.46C85.7101 204.652 85.6131 204.907 85.62 205.17L85.6 233.83Z" fill="#96B433"/>
<path d="M107.27 214.95H118.27C119.94 214.92 121.6 215.212 123.16 215.81C124.486 216.33 125.691 217.116 126.7 218.12C127.633 219.076 128.355 220.217 128.82 221.47C129.286 222.728 129.523 224.059 129.52 225.4C129.526 226.735 129.289 228.06 128.82 229.31C128.352 230.543 127.63 231.664 126.7 232.6C125.687 233.582 124.481 234.345 123.16 234.84C121.596 235.419 119.937 235.7 118.27 235.67H96.79V234.93C97.2825 234.936 97.7659 234.797 98.18 234.53C98.3538 234.339 98.4469 234.088 98.44 233.83V205.18C98.4496 204.918 98.3562 204.664 98.18 204.47C97.7659 204.203 97.2825 204.064 96.79 204.07V203.33H124.89C125.144 203.348 125.396 203.273 125.6 203.12C125.822 202.759 125.943 202.344 125.95 201.92H126.66V211.92H125.95C125.928 211.438 125.809 210.965 125.6 210.53C125.518 210.421 125.41 210.334 125.286 210.276C125.162 210.218 125.026 210.192 124.89 210.2H107.27V214.95ZM107.27 221.78V228.85H116.27C117.529 228.943 118.788 228.665 119.89 228.05C120.285 227.751 120.598 227.356 120.799 226.903C121 226.45 121.083 225.954 121.04 225.46C121.091 224.932 121.012 224.4 120.812 223.908C120.612 223.417 120.295 222.982 119.89 222.64C118.805 221.977 117.537 221.676 116.27 221.78H107.27Z" fill="#96B433"/>
<path d="M171.66 233.83C171.653 234.088 171.746 234.339 171.92 234.53C172.331 234.796 172.811 234.935 173.3 234.93V235.67H162.11V234.93C162.603 234.936 163.086 234.797 163.5 234.53C163.674 234.339 163.767 234.088 163.76 233.83V213.91L157.11 221.68C155.26 223.83 153.71 225.68 152.45 227.09C151.19 228.5 150.19 229.72 149.45 230.6C148.71 231.48 148.1 232.17 147.71 232.66C147.426 232.994 147.172 233.352 146.95 233.73C146.851 233.891 146.79 234.072 146.77 234.26C146.77 234.358 146.795 234.454 146.842 234.54C146.889 234.625 146.957 234.698 147.04 234.75C147.381 234.904 147.757 234.966 148.13 234.93V235.67H136.9V234.93C137.393 234.936 137.876 234.797 138.29 234.53C138.464 234.339 138.557 234.088 138.55 233.83V205.18C138.56 204.918 138.466 204.664 138.29 204.47C137.876 204.203 137.393 204.064 136.9 204.07V203.33H147.68V204.06C146.86 204.14 146.45 204.51 146.45 205.17V222.17C147.15 221.39 148 220.43 148.98 219.31C149.96 218.19 150.98 216.99 152.04 215.74C153.1 214.49 154.15 213.24 155.19 211.99C156.23 210.74 157.19 209.6 157.99 208.58C158.79 207.56 159.48 206.7 159.99 206.03C160.308 205.673 160.568 205.268 160.76 204.83C160.756 204.722 160.723 204.617 160.665 204.525C160.607 204.434 160.526 204.36 160.43 204.31C160.019 204.113 159.566 204.017 159.11 204.03V203.29H173.27V204.06C172.781 204.055 172.301 204.195 171.89 204.46C171.714 204.654 171.62 204.908 171.63 205.17L171.66 233.83Z" fill="#96B433"/>
<path d="M193.33 233.83C193.326 234.09 193.423 234.341 193.6 234.53C194.009 234.799 194.49 234.938 194.98 234.93V235.67H182.85V234.93C183.339 234.935 183.819 234.796 184.23 234.53C184.404 234.339 184.497 234.088 184.49 233.83V205.18C184.5 204.918 184.406 204.664 184.23 204.47C183.819 204.205 183.339 204.065 182.85 204.07V203.33H203.93C205.597 203.3 207.256 203.582 208.82 204.16C210.142 204.653 211.345 205.419 212.35 206.41C213.288 207.337 214.014 208.456 214.48 209.69C215.413 212.21 215.413 214.98 214.48 217.5C214.019 218.73 213.292 219.844 212.35 220.76C211.335 221.728 210.134 222.48 208.82 222.97C207.257 223.553 205.598 223.835 203.93 223.8H193.33V233.83ZM202.33 217.29C203.6 217.387 204.868 217.086 205.96 216.43C206.362 216.083 206.675 215.646 206.873 215.153C207.071 214.661 207.149 214.128 207.1 213.6C207.143 213.109 207.062 212.614 206.862 212.163C206.663 211.712 206.352 211.319 205.96 211.02C204.855 210.401 203.592 210.123 202.33 210.22H193.33V217.29H202.33Z" fill="#96B433"/>
<path d="M250.35 214.83C250.383 214.698 250.41 214.565 250.43 214.43C250.442 214.257 250.442 214.083 250.43 213.91C250.43 213.58 250.17 213.25 249.64 212.91C248.973 212.526 248.261 212.227 247.52 212.02C246.535 211.73 245.533 211.503 244.52 211.34C243.332 211.156 242.132 211.066 240.93 211.07C239.681 211.077 238.437 211.221 237.22 211.5C235.965 211.773 234.762 212.25 233.66 212.91C232.583 213.562 231.675 214.46 231.01 215.53C230.335 216.742 229.98 218.107 229.98 219.495C229.98 220.883 230.335 222.247 231.01 223.46C231.678 224.525 232.585 225.418 233.66 226.07C234.76 226.734 235.963 227.211 237.22 227.48C239.225 227.997 241.321 228.052 243.35 227.64C244.461 227.449 245.56 227.192 246.64 226.87C247.642 226.579 248.618 226.208 249.56 225.76C250.4 225.35 250.83 224.92 250.83 224.47C250.838 224.298 250.796 224.128 250.71 223.98C250.622 223.841 250.541 223.698 250.47 223.55L251.12 223.12L257.19 232.77L256.48 233.2C256.427 233.031 256.313 232.889 256.16 232.8C256.001 232.737 255.831 232.706 255.66 232.71C255.086 232.794 254.529 232.97 254.01 233.23C252.96 233.656 251.889 234.027 250.8 234.34C249.278 234.764 247.732 235.098 246.17 235.34C244.204 235.664 242.213 235.818 240.22 235.8C237.854 235.802 235.5 235.482 233.22 234.85C230.967 234.251 228.847 233.233 226.97 231.85C225.122 230.472 223.596 228.708 222.5 226.68C221.376 224.439 220.79 221.967 220.79 219.46C220.79 216.953 221.376 214.481 222.5 212.24C223.599 210.214 225.124 208.45 226.97 207.07C228.858 205.682 230.973 204.633 233.22 203.97C235.491 203.294 237.85 202.957 240.22 202.97C242.26 202.952 244.299 203.085 246.32 203.37C247.778 203.59 249.224 203.887 250.65 204.26C251.79 204.59 252.65 204.87 253.3 205.09C253.749 205.277 254.225 205.392 254.71 205.43C254.888 205.429 255.062 205.384 255.218 205.299C255.373 205.213 255.505 205.09 255.6 204.94L256.25 205.12L250.94 215.27L250.35 214.83Z" fill="#96B433"/>
<path d="M287.92 234.93C288.2 234.939 288.479 234.908 288.75 234.84C288.94 234.78 289.04 234.54 289.04 234.13C288.923 233.738 288.744 233.366 288.51 233.03C288.157 232.41 287.707 231.65 287.16 230.75C286.61 229.85 286 228.89 285.33 227.86C284.66 226.83 284.03 225.86 283.45 224.86C282.87 223.86 282.33 223.1 281.86 222.4C281.39 221.7 281.07 221.23 280.86 220.99L275.09 226.4V233.78C275.086 234.039 275.183 234.291 275.36 234.48C275.769 234.749 276.25 234.888 276.74 234.88V235.62H264.66V234.88C265.149 234.885 265.629 234.745 266.04 234.48C266.217 234.291 266.314 234.039 266.31 233.78V205.18C266.317 204.917 266.22 204.662 266.04 204.47C265.629 204.204 265.149 204.065 264.66 204.07V203.33H276.79V204.06C276.3 204.052 275.819 204.191 275.41 204.46C275.23 204.652 275.133 204.907 275.14 205.17V216.23H275.55C276.73 215.043 277.997 213.813 279.35 212.54C280.71 211.27 281.95 210.09 283.09 209.01C284.23 207.93 285.18 207.01 285.95 206.24C286.72 205.47 287.1 205.02 287.1 204.86C287.1 204.49 287 204.27 286.8 204.21C286.551 204.139 286.297 204.089 286.04 204.06V203.32H301.04V204.06C300.701 204.086 300.366 204.146 300.04 204.24C299.785 204.325 299.545 204.45 299.33 204.61C299.11 204.78 298.88 204.97 298.62 205.2C298.36 205.43 298.06 205.7 297.71 206.03L287.52 215.19L299.52 233.94C299.706 234.319 300.017 234.623 300.4 234.8C300.726 234.887 301.063 234.927 301.4 234.92V235.66H287.92V234.93Z" fill="#96B433"/>
<path d="M341.82 233.83C341.813 234.088 341.906 234.339 342.08 234.53C342.491 234.795 342.971 234.935 343.46 234.93V235.67H332.27V234.93C332.763 234.936 333.246 234.797 333.66 234.53C333.834 234.339 333.927 234.088 333.92 233.83V213.91L327.27 221.68C325.42 223.83 323.87 225.68 322.61 227.09C321.35 228.5 320.35 229.72 319.61 230.6C318.87 231.48 318.26 232.17 317.87 232.66C317.59 232.997 317.336 233.354 317.11 233.73C317.011 233.891 316.949 234.072 316.93 234.26C316.93 234.358 316.955 234.454 317.002 234.54C317.049 234.625 317.117 234.698 317.2 234.75C317.541 234.904 317.917 234.966 318.29 234.93V235.67H307.09V234.93C307.583 234.936 308.066 234.797 308.48 234.53C308.654 234.339 308.747 234.088 308.74 233.83V205.18C308.75 204.918 308.656 204.663 308.48 204.47C308.066 204.203 307.583 204.064 307.09 204.07V203.33H317.87V204.06C317.05 204.14 316.64 204.51 316.64 205.17V222.17C317.34 221.39 318.19 220.43 319.17 219.31C320.15 218.19 321.17 216.99 322.23 215.74C323.29 214.49 324.34 213.24 325.38 211.99C326.42 210.74 327.38 209.6 328.18 208.58C328.98 207.56 329.67 206.7 330.18 206.03C330.498 205.673 330.758 205.268 330.95 204.83C330.946 204.722 330.913 204.617 330.855 204.525C330.797 204.434 330.716 204.36 330.62 204.31C330.197 204.118 329.734 204.032 329.27 204.06V203.32H343.46V204.06C342.971 204.055 342.491 204.194 342.08 204.46C341.904 204.653 341.81 204.908 341.82 205.17V233.83Z" fill="#96B433"/>
<path d="M387.64 233.83C387.633 234.088 387.726 234.339 387.9 234.53C388.314 234.797 388.797 234.936 389.29 234.93V235.67H378.1V234.93C378.589 234.936 379.07 234.797 379.48 234.53C379.657 234.341 379.754 234.09 379.75 233.83V213.91L373.09 221.68L368.44 227.06L365.44 230.57C364.68 231.45 364.1 232.14 363.71 232.63C363.424 232.965 363.167 233.323 362.94 233.7C362.841 233.861 362.78 234.042 362.76 234.23C362.76 234.328 362.785 234.424 362.832 234.51C362.879 234.595 362.947 234.668 363.03 234.72C363.372 234.872 363.747 234.934 364.12 234.9V235.64H352.89V234.9C353.379 234.906 353.86 234.767 354.27 234.5C354.447 234.311 354.544 234.06 354.54 233.8V205.18C354.547 204.917 354.45 204.662 354.27 204.47C353.86 204.203 353.379 204.064 352.89 204.07V203.33H363.67V204.06C362.84 204.14 362.43 204.51 362.43 205.17V222.17C363.14 221.39 363.98 220.43 364.96 219.31C365.94 218.19 366.96 216.99 368.03 215.74C369.1 214.49 370.14 213.24 371.18 211.99C372.22 210.74 373.18 209.6 373.97 208.58C374.76 207.56 375.47 206.7 375.97 206.03C376.287 205.674 376.544 205.269 376.73 204.83C376.726 204.723 376.695 204.619 376.638 204.528C376.582 204.437 376.504 204.362 376.41 204.31C375.994 204.116 375.539 204.02 375.08 204.03V203.29H389.27V204.06C388.777 204.054 388.294 204.193 387.88 204.46C387.704 204.654 387.61 204.908 387.62 205.17L387.64 233.83ZM380.98 191.28C380.59 194.36 379.52 196.62 377.77 198.08C375.768 199.612 373.288 200.385 370.77 200.26C368.327 200.347 365.936 199.536 364.05 197.98C362.28 196.47 361.38 194.23 361.34 191.28H365.17C365.214 192.042 365.448 192.781 365.85 193.43C366.195 193.987 366.682 194.442 367.26 194.75C367.85 195.069 368.489 195.288 369.15 195.4C369.84 195.521 370.539 195.581 371.24 195.58C372.586 195.635 373.923 195.338 375.12 194.72C375.688 194.331 376.162 193.821 376.508 193.226C376.854 192.631 377.063 191.966 377.12 191.28H380.98Z" fill="#96B433"/>
<path d="M440.06 234.93C440.336 234.939 440.612 234.909 440.88 234.84C441.08 234.78 441.18 234.54 441.18 234.13C441.058 233.74 440.879 233.369 440.65 233.03C440.3 232.41 439.84 231.65 439.29 230.75C438.74 229.85 438.14 228.89 437.47 227.86C436.8 226.83 436.17 225.86 435.58 224.86C434.99 223.86 434.46 223.1 433.99 222.4L433.05 220.99L427.27 226.45V233.83C427.263 234.088 427.356 234.339 427.53 234.53C427.944 234.797 428.427 234.936 428.92 234.93V235.67H416.79V234.93C417.283 234.936 417.766 234.797 418.18 234.53C418.354 234.339 418.447 234.088 418.44 233.83V205.18C418.45 204.918 418.356 204.663 418.18 204.47C417.766 204.203 417.283 204.064 416.79 204.07V203.33H428.93V204.06C428.437 204.054 427.954 204.193 427.54 204.46C427.364 204.653 427.27 204.908 427.28 205.17V216.23H427.69C428.87 215.04 430.13 213.81 431.49 212.54L435.27 209.06C436.41 207.97 437.36 207.06 438.13 206.29C438.9 205.52 439.27 205.06 439.27 204.87C439.27 204.5 439.17 204.28 438.97 204.22C438.718 204.149 438.46 204.099 438.2 204.07V203.33H453.2V204.06C452.861 204.086 452.526 204.147 452.2 204.24C451.949 204.327 451.713 204.452 451.5 204.61C451.28 204.78 451.04 204.97 450.79 205.2C450.54 205.43 450.23 205.7 449.88 206.03L439.69 215.19L451.69 233.94C451.882 234.318 452.196 234.621 452.58 234.8C452.906 234.887 453.243 234.927 453.58 234.92V235.66H440.06V234.93Z" fill="#96B433"/>
<path d="M482.53 223.87C482.462 223.496 482.288 223.149 482.03 222.87C481.856 222.721 481.654 222.609 481.436 222.54C481.218 222.472 480.988 222.448 480.76 222.47H469.76V228.19H488.67C488.807 228.198 488.945 228.172 489.069 228.112C489.193 228.053 489.3 227.962 489.38 227.85C489.597 227.375 489.716 226.862 489.73 226.34H490.44V236.86H489.73C489.721 236.498 489.598 236.149 489.38 235.86C489.168 235.726 488.92 235.663 488.67 235.68H459.32V234.94C459.81 234.948 460.291 234.809 460.7 234.54C460.877 234.351 460.974 234.1 460.97 233.84V205.18C460.977 204.917 460.88 204.662 460.7 204.47C460.291 204.201 459.81 204.062 459.32 204.07V203.33H488.71C488.847 203.338 488.985 203.312 489.109 203.252C489.233 203.193 489.34 203.102 489.42 202.99C489.631 202.559 489.75 202.089 489.77 201.61H490.48V212.31H489.77C489.748 211.828 489.629 211.355 489.42 210.92C489.338 210.811 489.23 210.724 489.106 210.666C488.982 210.608 488.846 210.582 488.71 210.59H469.8V215.69H480.8C481.028 215.712 481.258 215.688 481.476 215.619C481.694 215.551 481.896 215.439 482.07 215.29C482.328 215.011 482.502 214.664 482.57 214.29H483.27V223.89L482.53 223.87Z" fill="#96B433"/>
<path d="M503.27 235.67V239.97C503.26 240.11 503.285 240.25 503.34 240.379C503.396 240.508 503.482 240.621 503.59 240.71C504 240.932 504.454 241.059 504.92 241.08V241.82H494.72V241.06C495.132 241.058 495.534 240.929 495.87 240.69C496.018 240.473 496.088 240.212 496.07 239.95V228.15H500.84L502.55 223.6L504.47 218.47L506.32 213.42L507.91 209.06L509.06 205.92C509.228 205.508 509.375 205.087 509.5 204.66C509.5 204.46 509.37 204.32 509.12 204.23C508.858 204.149 508.591 204.089 508.32 204.05V203.31H524.4V204.06C524.14 204.087 523.884 204.147 523.64 204.24C523.44 204.33 523.34 204.53 523.34 204.86C523.34 204.94 523.63 205.75 524.2 207.29C524.77 208.83 525.49 210.73 526.38 213C527.27 215.27 528.23 217.77 529.29 220.47L532.29 228.16H537.06V239.96C537.042 240.222 537.112 240.483 537.26 240.7C537.596 240.939 537.998 241.068 538.41 241.07V241.81H528.27V241.06C528.736 241.039 529.19 240.912 529.6 240.69C529.708 240.601 529.794 240.488 529.85 240.359C529.905 240.23 529.929 240.09 529.92 239.95V235.65L503.27 235.67ZM509.1 228.17H522.87C522.05 226.083 521.05 223.49 519.87 220.39C518.69 217.29 517.327 213.693 515.78 209.6L509.1 228.17Z" fill="#96B433"/>
<path d="M554.56 233.83C554.556 234.09 554.653 234.341 554.83 234.53C555.24 234.799 555.72 234.938 556.21 234.93V235.67H544.08V234.93C544.569 234.935 545.049 234.796 545.46 234.53C545.638 234.341 545.734 234.09 545.73 233.83V205.18C545.737 204.917 545.64 204.662 545.46 204.47C545.049 204.205 544.569 204.065 544.08 204.07V203.33H565.16C566.828 203.3 568.486 203.582 570.05 204.16C571.374 204.655 572.58 205.422 573.59 206.41C574.522 207.34 575.244 208.459 575.71 209.69C576.644 212.21 576.644 214.98 575.71 217.5C575.249 218.728 574.526 219.841 573.59 220.76C572.57 221.726 571.366 222.477 570.05 222.97C568.487 223.553 566.828 223.835 565.16 223.8H554.56V233.83ZM563.51 217.29C564.78 217.387 566.049 217.086 567.14 216.43C567.542 216.083 567.855 215.646 568.053 215.153C568.252 214.661 568.329 214.128 568.28 213.6C568.323 213.109 568.242 212.614 568.042 212.163C567.843 211.712 567.533 211.319 567.14 211.02C566.035 210.401 564.772 210.123 563.51 210.22H554.56V217.29H563.51Z" fill="#96B433"/>
</g>
<defs>
<clipPath id="clip0">
<rect width="594.68" height="327.78" fill="white"/>
</clipPath>
</defs>
</svg>
